<mxfile host="app.diagrams.net" agent="Mozilla/5.0 (X11; Ubuntu; Linux x86_64; rv:136.0) Gecko/20100101 Firefox/136.0" version="26.0.16">
  <diagram name="Page-1" id="kxXnDCxeON_1RzQPkl5J">
    <mxGraphModel dx="569" dy="363" grid="1" gridSize="10" guides="1" tooltips="1" connect="1" arrows="1" fold="1" page="1" pageScale="1" pageWidth="850" pageHeight="1100" math="0" shadow="0">
      <root>
        <mxCell id="0" />
        <mxCell id="1" parent="0" />
        <mxCell id="srBQrEgiwfPGSmwqLRBb-4" style="edgeStyle=orthogonalEdgeStyle;rounded=0;orthogonalLoop=1;jettySize=auto;html=1;exitX=0;exitY=0.5;exitDx=0;exitDy=0;entryX=0;entryY=0.5;entryDx=0;entryDy=0;" edge="1" parent="1" source="srBQrEgiwfPGSmwqLRBb-1" target="srBQrEgiwfPGSmwqLRBb-2">
          <mxGeometry relative="1" as="geometry" />
        </mxCell>
        <mxCell id="srBQrEgiwfPGSmwqLRBb-1" value="UART" style="rounded=0;whiteSpace=wrap;html=1;" vertex="1" parent="1">
          <mxGeometry x="280" y="140" width="120" height="60" as="geometry" />
        </mxCell>
        <mxCell id="srBQrEgiwfPGSmwqLRBb-5" style="edgeStyle=orthogonalEdgeStyle;rounded=0;orthogonalLoop=1;jettySize=auto;html=1;exitX=1;exitY=0.5;exitDx=0;exitDy=0;entryX=0;entryY=0.5;entryDx=0;entryDy=0;" edge="1" parent="1" source="srBQrEgiwfPGSmwqLRBb-2" target="srBQrEgiwfPGSmwqLRBb-3">
          <mxGeometry relative="1" as="geometry" />
        </mxCell>
        <mxCell id="srBQrEgiwfPGSmwqLRBb-2" value="Hidden_Layer" style="rounded=0;whiteSpace=wrap;html=1;" vertex="1" parent="1">
          <mxGeometry x="190" y="220" width="120" height="60" as="geometry" />
        </mxCell>
        <mxCell id="srBQrEgiwfPGSmwqLRBb-6" style="edgeStyle=orthogonalEdgeStyle;rounded=0;orthogonalLoop=1;jettySize=auto;html=1;exitX=1;exitY=0.5;exitDx=0;exitDy=0;entryX=1;entryY=0.5;entryDx=0;entryDy=0;" edge="1" parent="1" source="srBQrEgiwfPGSmwqLRBb-3" target="srBQrEgiwfPGSmwqLRBb-1">
          <mxGeometry relative="1" as="geometry" />
        </mxCell>
        <mxCell id="srBQrEgiwfPGSmwqLRBb-3" value="Output_Layer" style="rounded=0;whiteSpace=wrap;html=1;" vertex="1" parent="1">
          <mxGeometry x="360" y="220" width="120" height="60" as="geometry" />
        </mxCell>
      </root>
    </mxGraphModel>
  </diagram>
</mxfile>
